<?xml version="1.0" encoding="iso-8859-1"?>
<!-- Uploaded to: SVG Repo, www.svgrepo.com, Generator: SVG Repo Mixer Tools -->
<svg height="800px" width="800px" version="1.1" id="Layer_1" xmlns="http://www.w3.org/2000/svg" xmlns:xlink="http://www.w3.org/1999/xlink" 
	 viewBox="0 0 508 508" xml:space="preserve">
<circle style="fill:#FFD05B;" cx="254" cy="254" r="254"/>
<ellipse style="fill:#324A5E;" cx="254" cy="291.6" rx="143.6" ry="124.8"/>
<path style="fill:#2B3B4E;" d="M204,416.4h99.6c7.6,0,14.8-3.2,20-8.8C352,378.8,370,333.2,370,282c0-87.2-52-158-116-158
	s-116,70.8-116,158c0,51.2,18,96.8,46,126C189.6,413.2,196.8,416.4,204,416.4z"/>
<ellipse style="fill:#324A5E;" cx="254" cy="168.8" rx="117.2" ry="88"/>
<path style="fill:#FFD05B;" d="M254,169.2L254,169.2c-14.4,14.4-14.4,37.2,0,51.6l0,0l0,0C268.4,206.4,268.4,183.6,254,169.2z"/>
<circle style="fill:#FFFFFF;" cx="299.2" cy="169.2" r="45.2"/>
<circle style="fill:#84DBFF;" cx="299.2" cy="169.2" r="30.4"/>
<circle style="fill:#54C0EB;" cx="299.2" cy="169.2" r="17.2"/>
<g>
	<circle style="fill:#FFFFFF;" cx="287.6" cy="158" r="7.2"/>
	<circle style="fill:#FFFFFF;" cx="296.4" cy="166.8" r="4"/>
	<circle style="fill:#FFFFFF;" cx="208.8" cy="169.2" r="45.2"/>
</g>
<circle style="fill:#84DBFF;" cx="208.8" cy="169.2" r="30.4"/>
<circle style="fill:#54C0EB;" cx="208.8" cy="169.2" r="17.2"/>
<g>
	<circle style="fill:#FFFFFF;" cx="197.2" cy="158" r="7.2"/>
	<circle style="fill:#FFFFFF;" cx="206" cy="166.8" r="4"/>
</g>
<g>
	<path style="fill:#324A5E;" d="M277.2,312.8c4,12,12.8,20.4,23.2,20.4s19.2-8.4,23.2-20.4H277.2z"/>
	<path style="fill:#324A5E;" d="M230.8,312.8c4,12,12.8,20.4,23.2,20.4s19.2-8.4,23.2-20.4H230.8z"/>
	<path style="fill:#324A5E;" d="M184.8,312.8c4,12,12.8,20.4,23.2,20.4s19.2-8.4,23.2-20.4H184.8z"/>
	<path style="fill:#324A5E;" d="M230.8,353.6c4,12,12.8,20.4,23.2,20.4s19.2-8.4,23.2-20.4H230.8z"/>
	<path style="fill:#324A5E;" d="M254,333.2c4,12,12.8,20.4,23.2,20.4s19.2-8.4,23.2-20.4H254z"/>
	<path style="fill:#324A5E;" d="M208,333.2c4,12,12.8,20.4,23.2,20.4s19.2-8.4,23.2-20.4H208z"/>
	<path style="fill:#324A5E;" d="M309.2,87.6C288.4,94,268,97.2,250,96.8c16.4,19.2,43.2,27.6,68.4,19.6c25.6-8,42.4-30.4,44.8-55.6
		C348,72,330,81.2,309.2,87.6z"/>
	<path style="fill:#324A5E;" d="M198.8,87.6c20.8,6.4,41.2,9.6,59.2,9.2c-16.4,19.2-43.2,27.6-68.4,19.6
		c-25.6-8-42.4-30.4-44.8-55.6C160,72,178,81.2,198.8,87.6z"/>
</g>
<g>
	<path style="fill:#FFFFFF;" d="M287.6,447.2L287.6,447.2c8,0,14.8-6.8,14.8-14.8v-21.2c0-8-6.8-14.8-14.8-14.8l0,0
		c-8,0-14.8,6.8-14.8,14.8v21.2C272.8,440.4,279.6,447.2,287.6,447.2z"/>
	<path style="fill:#FFFFFF;" d="M220.4,447.2L220.4,447.2c8,0,14.8-6.8,14.8-14.8v-21.2c0-8-6.8-14.8-14.8-14.8l0,0
		c-8,0-14.8,6.8-14.8,14.8v21.2C205.6,440.4,212,447.2,220.4,447.2z"/>
</g>
</svg>